<?xml version="1.0" encoding="UTF-8" standalone="no"?>
<svg
	xmlns="http://www.w3.org/2000/svg"
	width="48"
	height="48"
	viewBox="0 0 48 48">
	<path
		d="M 36,42 H 14 V 16 L 28,2 30.5,4.5 Q 30.85,4.85 31.075,5.45 31.3,6.05 31.3,6.6 V 7.3 L 29.1,16 H 42 q 1.6,0 2.8,1.2 1.2,1.2 1.2,2.8 v 4 q 0,0.35 -0.1,0.75 -0.1,0.4 -0.2,0.75 l -6,14.1 q -0.45,1 -1.5,1.7 Q 37.15,42 36,42 Z M 18,38 H 36 L 42,24 V 20 H 24 L 26.7,9 18,17.7 Z M 18,17.7 V 38 Z M 14,16 v 4 H 8 v 18 h 6 v 4 H 4 V 16 Z"
		style="fill:#303030" />
</svg>